<svg width="150" height="152" viewBox="0 0 150 152" fill="none" xmlns="http://www.w3.org/2000/svg">
<path d="M114.376 56.6936H78.7514V73.2311C78.7514 84.955 71.1811 94.4936 61.8764 94.4936C52.5718 94.4936 45.0014 84.955 45.0014 73.2311V37.3211L29.7905 48.8383C25.2671 52.2344 22.5014 58.4064 22.5014 65.0214V78.9897L3.75144 92.6331C0.165502 95.2319 -1.07669 101.02 1.00925 105.538L19.7593 146.469C21.8218 150.987 26.4155 152.523 30.0014 149.924L54.2358 132.294H86.2514C94.5249 132.294 101.251 123.818 101.251 113.394H105.001C109.15 113.394 112.501 109.171 112.501 103.944V85.0436H114.376C117.494 85.0436 120.001 81.8838 120.001 77.9561V63.7811C120.001 59.8535 117.494 56.6936 114.376 56.6936ZM148.994 45.6489L130.244 4.71861C128.181 0.20033 123.587 -1.33529 120.001 1.26346L95.7671 18.8936H71.8139C69.0014 18.8936 66.2592 19.8977 63.8686 21.7581L56.0171 27.9302C53.8139 29.643 52.5014 32.6847 52.5014 35.9331V73.2311C52.5014 79.7575 56.6968 85.0436 61.8764 85.0436C67.0561 85.0436 71.2514 79.7575 71.2514 73.2311V47.2436H114.376C121.619 47.2436 127.501 54.656 127.501 63.7811V72.1975L146.251 58.5541C149.837 55.9258 151.056 50.1672 148.994 45.6489Z" fill="#494949"/>
</svg>
