<svg width="150" height="188" viewBox="0 0 150 188" fill="none" xmlns="http://www.w3.org/2000/svg">
<g clip-path="url(#clip0_2028_296)">
<path d="M103.125 35.25C103.125 15.7817 90.5332 0 75 0C59.4668 0 46.875 15.7817 46.875 35.25C46.875 54.7183 59.4668 70.5 75 70.5C90.5332 70.5 103.125 54.7183 103.125 35.25ZM68.4346 88.5289C51.0527 75.1927 22.8984 71.5281 8.73047 70.5184C3.96973 70.1806 0 74.7263 0 80.4655V162.275C0 167.537 3.39551 171.925 7.76074 172.207C20.5518 173.048 46.4297 176.129 64.3154 187.42C67.0605 189.153 70.3154 186.792 70.3154 183.061V92.7369C70.3125 91.0221 69.6357 89.4506 68.4346 88.5289ZM141.27 70.5184C127.104 71.5245 98.9473 75.1927 81.5684 88.5289C80.3672 89.4506 79.6904 91.0845 79.6904 92.7993V183.05C79.6904 186.792 82.9541 189.157 85.708 187.42C103.591 176.14 129.454 173.059 142.242 172.218C146.607 171.932 150.003 167.544 150.003 162.282V80.4655C150 74.7263 146.03 70.1806 141.27 70.5184Z" fill="#494949"/>
</g>
<defs>
<clipPath id="clip0_2028_296">
<rect width="150" height="188" fill="white"/>
</clipPath>
</defs>
</svg>
